<svg xmlns="http://www.w3.org/2000/svg"><defs><font horiz-adv-x="553"><font-face alphabetic="0" ascent="925" descent="-275" panose-1="2 0 0 9 0 0 0 0 0 0"/><glyph glyph-name="space" horiz-adv-x="550" unicode="&#x20;"/><glyph d="M275 650Q314 650 314 426 314 201 275 201 236 201 236 426 236 650 275 650ZM327 49Q327 0 275 0 223 0 223 49 223 98 275 98 327 98 327 49Z" glyph-name="exclam" horiz-adv-x="550" unicode="&#x21;"/><glyph d="M201 436Q191 436 182 452T166 494 155 549 151 602Q151 650 200 650 249 650 249 602 249 578 246 549T236 495 220 453 201 436ZM351 436Q341 436 332 452T316 494 305 549 301 602Q301 650 350 650 399 650 399 602 399 578 396 549T386 495 370 453 351 436Z" glyph-name="quotedbl" horiz-adv-x="550" unicode="&#x26;&#x71;&#x75;&#x6f;&#x74;&#x3b;"/><glyph d="M456 404Q402 404 402 325 402 246 456 246 510 246 510 213 510 180 456 180 402 180 402 100 402 20 370 20 338 20 338 100 338 180 278 180 218 180 218 100 218 20 186 20 154 20 154 100 154 180 97 180 40 180 40 213 40 246 97 246 154 246 154 325 154 404 97 404 40 404 40 437 40 470 97 470 154 470 154 550 154 630 186 630 218 630 218 550 218 470 278 470 338 470 338 550 338 630 370 630 402 630 402 550 402 470 456 470 510 470 510 437 510 404 456 404ZM338 325Q338 404 278 404 218 404 218 325 218 246 278 246 338 246 338 325Z" glyph-name="numbersign" horiz-adv-x="550" unicode="&#x23;"/><glyph d="M388 334 484 267V131L391 55H282Q260 58 249-7 243-40 229-54T201-66 178-44 176 8Q186 75 142 93L87 151 65 208Q67 226 104 226 140 226 151 185L233 132H355L404 166V231L348 264Q313 270 272 277T184 292L76 363V494L173 575H268Q276 575 286 638 292 670 306 683T334 695 357 675 360 625Q349 561 400 545L453 469Q455 415 420 415 385 415 371 496H208L156 462V400L223 365Q258 358 299 351T388 334Z" glyph-name="dollar" horiz-adv-x="550" unicode="&#x24;"/><glyph d="M405 699Q412 697 407 664T387 576 351 454 306 316 257 180 210 62 172-19 149-46Q142-43 147-10T167 78 203 199 248 337 296 473 343 590 381 671 405 699ZM79 336 20 425V572L79 660H187L246 572V426L186 336H79ZM172 410V587H94V410H172ZM364-10 305 79V225L364 314H472L531 225V79L472-10H364ZM457 63V240H379V63H457Z" glyph-name="percent" horiz-adv-x="550" unicode="&#x25;"/><glyph d="M514 338Q514 300 470 300 426 300 426 77 426-146 391-146 356-146 356-27 356 90 328-10H165L82 38 36 122V246L122 331Q160 336 160 341T124 350L46 417V533L94 614 181 660H314L406 573Q406 494 371 494 336 494 336 538L282 585H186L126 529V434L194 375H383Q514 375 514 338ZM356 239Q356 300 304 300H188L116 235V128L178 65H282L356 130V239Z" glyph-name="ampersand" horiz-adv-x="550" unicode="&#x26;&#x61;&#x6d;&#x70;&#x3b;"/><glyph d="M288 456H256Q246 471 238 487T226 531 221 602Q221 650 275 650 302 650 315 640T329 602Q329 558 323 531T308 488 288 456Z" glyph-name="quotesingle" horiz-adv-x="550" unicode="&#x26;&#x61;&#x70;&#x6f;&#x73;&#x3b;"/><glyph d="M383-94Q379-94 365-103T339-123 327-140L239-18 168 168V404L239 590 327 712Q327 708 339 697T365 676 383 666L308 558 248 393V179L308 14 383-94Z" glyph-name="parenleft" horiz-adv-x="550" unicode="&#x28;"/><glyph d="M223-140Q223-134 211-123T186-103 167-94L242 14 302 179V393L242 558 167 666Q172 666 185 675T211 696 223 712L311 590 382 404V168L311-18 223-140Z" glyph-name="parenright" horiz-adv-x="550" unicode="&#x29;"/><glyph d="M388 544Q335 527 371 478 389 453 389 435T379 408 349 405 312 438Q275 491 237 438 218 412 200 406T171 407 159 434 177 477Q212 526 161 542 136 551 126 565T121 592 142 612 186 609Q240 591 240 651 240 710 275 710 310 710 310 652 310 593 364 611 391 620 408 614T429 595 424 567 388 544Z" glyph-name="asterisk" horiz-adv-x="550" unicode="&#x2a;"/><glyph d="M455 270Q455 235 383 235 310 235 310 163 310 90 275 90 240 90 240 163 240 235 168 235 95 235 95 270 95 305 168 305 240 305 240 378 240 450 275 450 310 450 310 378 310 305 383 305 455 305 455 270Z" glyph-name="plus" horiz-adv-x="550" unicode="&#x2b;"/><glyph d="M235-96Q229-85 232-83L251-65 270-32Q270-11 246-5 221-1 221 49 221 97 275 97 329 97 329 64V-28L283-92Q240-107 235-96Z" glyph-name="comma" horiz-adv-x="550" unicode="&#x2c;"/><glyph d="M275 307Q420 307 420 270 420 233 275 233 130 233 130 270 130 307 275 307Z" glyph-name="hyphen" horiz-adv-x="550" unicode="&#x2d;"/><glyph d="M327 49Q327 0 275 0 223 0 223 49 223 98 275 98 327 98 327 49Z" glyph-name="period" horiz-adv-x="550" unicode="&#x2e;"/><glyph d="M485 679Q493 674 482 640T444 552 383 432 308 297 229 165 155 52 98-25 66-47Q58-42 69-8T106 80 167 200 242 334 321 466 395 579 453 656 485 679Z" glyph-name="slash" horiz-adv-x="550" unicode="&#x2f;"/><glyph d="M389 660 505 475V175L389-10H161L45 175V475L161 660H389ZM350 70 425 206V444L350 580H200L125 444V206L200 70H350Z" glyph-name="zero" horiz-adv-x="550" unicode="&#x30;"/><glyph d="M654 75Q726 75 726 38 726 0 531 0 336 0 336 38 336 75 419 75 501 75 501 325 501 575 424 575 346 575 346 613 346 650 464 650 581 650 581 363 581 75 654 75Z" glyph-name="one" horiz-adv-x="550" unicode="&#x31;"/><glyph d="M321 75Q465 75 465 38 465 0 275 0 85 0 85 38V75Q85 75 89 80T103 96Q102 95 136 136T239 260L333 380 368 448V529L311 585H221L157 528Q157 484 122 484 99 484 92 486T85 501 86 544L135 618 218 660H321L403 614 448 534V442L402 348 338 265Q311 233 292 211T260 174Q261 175 251 163T219 125Q177 75 321 75Z" glyph-name="two" horiz-adv-x="550" unicode="&#x32;"/><glyph d="M465 322V127L416 40 329-10H221L135 36 84 115Q84 147 83 160T89 175 120 178Q155 178 155 130L223 65H324L385 128V235L317 301H232Q203 301 203 338 203 374 232 374H316L376 433V529L316 585H225L164 528Q164 484 129 484 105 484 98 487T92 502 93 545L141 618 222 660H325L409 614 456 533V414L384 349Q317 342 465 322Z" glyph-name="three" horiz-adv-x="550" unicode="&#x33;"/><glyph d="M499 183Q499 145 453 145 407 145 407 73 407 0 367 0 327 0 327 73 327 145 190 145 52 145 52 183 52 194 66 224T105 297 159 388 220 482 281 566 333 627 367 650Q407 650 407 435 407 220 453 220 499 220 499 183ZM234 220Q327 220 327 368 327 410 316 422T287 425 252 392 218 340 198 284 199 238 234 220Z" glyph-name="four" horiz-adv-x="550" unicode="&#x34;"/><glyph d="M345 420 433 366 485 268V140L428 42 334-10H225L129 38 69 127Q65 187 105 187 145 187 151 131L225 68H311L369 100 405 162V246L371 309 316 342H243L179 305Q160 259 122 267 110 270 101 298T90 370 95 462 122 553 177 623 265 650Q424 650 424 613 424 575 302 575 181 575 173 453 169 392 172 373T183 376L250 420H345Z" glyph-name="five" horiz-adv-x="550" unicode="&#x35;"/><glyph d="M346 420 435 368 488 272V143L430 43 331-10H214L118 41 62 135V249Q74 280 81 300T93 329L222 601Q244 650 288 650 332 650 261 510 190 369 236 420H346ZM408 270 334 343H217L142 261V138L217 67H329L408 143V270Z" glyph-name="six" horiz-adv-x="550" unicode="&#x36;"/><glyph d="M276 650Q461 650 461 613 461 602 450 564T418 470 374 351 323 225 272 112 228 31 197 0Q157 0 269 288 380 575 235 575 90 575 90 613 90 650 276 650Z" glyph-name="seven" horiz-adv-x="550" unicode="&#x37;"/><glyph d="M421 323 485 240V126L435 40 340-10H210L115 40 65 126V240L129 323Q183 342 135 358L79 428V534L127 614 215 660H335L423 614 471 534V428L415 358Q367 342 421 323ZM223 585 159 529V439L224 379H326L391 439V529L327 585H223ZM334 65 405 129V230L334 296H216L145 230V129L216 65H334Z" glyph-name="eight" horiz-adv-x="550" unicode="&#x38;"/><glyph d="M336 660 432 609 488 515V401Q476 370 469 350T457 321L328 49Q306 0 262 0 218 0 289 140 360 281 314 230H206L116 283 62 379V508L120 607 219 660H336ZM333 307 408 389V512L333 583H221L142 507V380L216 307H333Z" glyph-name="nine" horiz-adv-x="550" unicode="&#x39;"/><glyph d="M327 438Q327 389 275 389 223 389 223 438 223 487 275 487 327 487 327 438ZM327 49Q327 0 275 0 223 0 223 49 223 98 275 98 327 98 327 49Z" glyph-name="colon" horiz-adv-x="550" unicode="&#x3a;"/><glyph d="M327 437Q327 388 275 388 223 388 223 437 223 486 275 486 327 486 327 437ZM235-96Q229-85 232-83L251-65 270-32Q270-11 246-5 221-1 221 49 221 97 275 97 329 97 329 64V-28L283-92Q240-107 235-96Z" glyph-name="semicolon" horiz-adv-x="550" unicode="&#x3b;"/><glyph d="M255 429Q336 476 381 488T436 488 415 445 314 373Q173 291 314 210 455 128 436 94 429 83 402 88T336 111 255 152 177 203 117 252 94 291Q94 336 255 429Z" glyph-name="less" horiz-adv-x="550" unicode="&#x26;&#x6c;&#x74;&#x3b;"/><glyph d="M275 405Q470 405 470 368 470 330 275 330 80 330 80 368 80 405 275 405ZM275 225Q470 225 470 188 470 150 275 150 80 150 80 188 80 225 275 225Z" glyph-name="equal" horiz-adv-x="550" unicode="&#x3d;"/><glyph d="M295 429Q456 336 456 291 456 276 433 253T374 203 295 153 215 111 149 89 114 94Q95 128 236 210 377 291 236 373 165 414 135 444T114 488 168 489 295 429Z" glyph-name="greater" horiz-adv-x="550" unicode="&#x26;&#x67;&#x74;&#x3b;"/><glyph d="M335 660 423 614 471 534V405L380 310Q302 301 302 251 302 201 262 201 222 201 222 288 222 374 244 374H323L391 437V530L330 585H223L159 529Q159 484 119 484 79 484 79 533L130 613 220 660H335ZM209 49Q209 98 261 98 312 98 312 49 312 0 261 0 209 0 209 49Z" glyph-name="question" horiz-adv-x="550" unicode="&#x3f;"/><glyph d="M501 527V450L490 384Q484 359 481 345T476 327Q474 317 471 304T464 277L438 198 423 183 409 172Q407 170 406 168T404 165L400 157Q396 154 392 154L384 160Q383 161 349 178 349 219 349 252T352 323V351Q356 367 357 376T360 387L365 403Q364 401 351 383 336 343 336 342V340Q336 340 335 338T332 331Q328 316 322 298T309 256L290 209Q283 199 275 188T259 165Q211 108 190 84 180 71 175 65T169 59Q169 58 166 58 166 82 165 104T161 153V207Q162 212 164 225T168 258Q181 302 188 327T199 366 206 393Q210 412 212 421T214 432V442Q213 446 213 449T213 456H218L224 453Q224 453 230 451L255 447Q258 446 262 444T270 440L313 413Q321 408 335 443 340 448 348 457T368 480H394L405 455V408Q401 387 399 375T394 359Q391 352 391 317 390 300 390 287T389 265Q389 224 400 229T418 280Q422 310 424 326T431 358 442 403L452 458V515Q448 529 445 538T440 552L439 559 435 560Q432 562 431 563T428 565L412 576Q388 584 390 582L378 583H366Q353 581 338 579T306 575Q284 565 264 557T227 542L151 467Q144 440 115 347L98 207V54L113 3 134-30Q136-33 136-33T135-30L149-33Q158-38 164-42T174-48H215L242-16Q261 10 280 34L291 56Q292 58 297 68T311 85 332 80Q349 62 351 64L348 58Q348 57 348 55T349 48L341 28Q338 23 333 13T319-11Q291-42 286-47L277-58Q273-65 247-94L215-120H176L158-117Q148-109 145-107L118-95 100-81Q99-76 97-69T93-55L83-30Q82-25 78-12T65 22L49 82V214L70 376Q84 422 93 455T108 508L203 606Q223 614 236 620T256 628Q261 630 265 631T270 634L301 648Q312 650 326 652T360 656H389Q396 655 403 653T417 649L432 641 449 628Q453 626 457 623T467 615L479 591 487 566Q488 563 491 554T501 527ZM255 221 277 280Q294 331 298 343 301 351 289 360T261 372 240 365Q239 360 237 349T233 320Q226 296 219 275T206 235Q202 215 202 206T201 181Q204 162 224 185 234 196 242 205T255 221Z" glyph-name="at" horiz-adv-x="550" unicode="&#x40;"/><glyph d="M477 0Q460 0 446 17T420 59 400 110 388 153 384 170H274Q164 170 139 85 114 0 72 0 62 0 62 28T72 103 96 208 131 330 170 451 211 557 247 632 274 660Q285 660 301 632T337 557 378 452 418 330 452 209 477 103 487 28 477 0ZM274 246Q362 246 318 396 274 546 230 396 187 246 274 246Z" glyph-name="A" horiz-adv-x="550" unicode="&#x41;"/><glyph d="M496 96 385 5Q338 3 315 2T291 0H168Q45 0 45 325 45 650 153 650H362L475 558V409L404 339Q371 334 373 329T412 320L496 255V96ZM193 572Q125 572 125 467 125 361 188 361H320L396 418V524L323 572H193ZM416 78V240L324 283H188Q125 283 125 181 125 78 198 78H416Z" glyph-name="B" horiz-adv-x="550" unicode="&#x42;"/><glyph d="M505 109 395-10H160L35 166V484L160 660H395L507 541Q515 431 478 431 441 431 427 509L357 585H199L115 453V196L199 65H357L424 141Q430 217 468 217 505 217 505 109Z" glyph-name="C" horiz-adv-x="550" unicode="&#x43;"/><glyph d="M515 466V184L370 0H127Q45 0 45 325 45 650 127 650H370L515 466ZM338 77 436 217V438L339 573H167Q125 573 125 325 125 77 167 77H338Z" glyph-name="D" horiz-adv-x="550" unicode="&#x44;"/><glyph d="M316 75Q506 75 506 38 506 0 276 0 45 0 45 325 45 650 275 650 505 650 505 613 505 575 315 575 125 575 125 468 125 361 281 361 436 361 436 324 436 286 281 286 125 286 125 181 125 75 316 75Z" glyph-name="E" horiz-adv-x="550" unicode="&#x45;"/><glyph d="M315 573Q125 573 125 468 125 362 281 362 436 362 436 324 436 285 281 285 125 285 125 143 125 0 85 0 45 0 45 325 45 650 275 650 505 650 505 612 505 573 315 573Z" glyph-name="F" horiz-adv-x="550" unicode="&#x46;"/><glyph d="M505 156Q505 0 471 0 437 0 437 81 439 150 427 128T364-10H146L35 168V483L156 660H374L483 540Q495 431 460 431 425 431 415 507L345 583H115V200L188 67H313L389 149Q412 239 351 238 289 236 289 274 289 311 397 311 505 311 505 156Z" glyph-name="G" horiz-adv-x="550" unicode="&#x47;"/><glyph d="M465 650Q505 650 505 325 505 0 465 0 425 0 425 144 425 287 275 287 125 287 125 144 125 0 85 0 45 0 45 325 45 650 85 650 125 650 125 506 125 362 275 362 425 362 425 506 425 650 465 650Z" glyph-name="H" horiz-adv-x="550" unicode="&#x48;"/><glyph d="M380 575Q315 575 315 325 315 75 380 75 445 75 445 38 445 0 380 0H170Q105 0 105 38 105 75 170 75 235 75 235 325 235 575 170 575 105 575 105 613 105 650 275 650 445 650 445 613 445 575 380 575Z" glyph-name="I" horiz-adv-x="550" unicode="&#x49;"/><glyph d="M445 650Q485 650 485 435V154L433 49 338-10H175L49 96Q44 188 82 188 118 188 128 130L211 68H336L405 152V435Q405 650 445 650Z" glyph-name="J" horiz-adv-x="550" unicode="&#x4a;"/><glyph d="M477 0Q424 0 275 170 125 340 125 170 125 0 85 0 45 0 45 325 45 650 85 650 125 650 125 495 125 340 253 495 381 650 434 650 489 650 355 497 313 449 294 412T277 339 304 264 376 172Q530 0 477 0Z" glyph-name="K" horiz-adv-x="550" unicode="&#x4b;"/><glyph d="M315 75Q505 75 505 38 505 0 312 0H82Q45 0 45 325 45 650 85 650 125 650 125 363 125 75 315 75Z" glyph-name="L" horiz-adv-x="550" unicode="&#x4c;"/><glyph d="M465 650Q505 650 505 325 505 0 465 0 425 0 425 215 425 428 370 215 314 0 275 0 236 0 180 213 125 424 125 213 125 0 85 0 45 0 45 325 45 650 85 650 125 650 200 379 275 108 350 379 425 650 465 650Z" glyph-name="M" horiz-adv-x="550" unicode="&#x4d;"/><glyph d="M465 650Q505 650 505 325 505 0 465 0 425 0 275 255 125 509 125 255 125 0 85 0 45 0 45 325 45 650 85 650 125 650 275 393 425 135 425 393 425 650 465 650Z" glyph-name="N" horiz-adv-x="550" unicode="&#x4e;"/><glyph d="M153-10 35 166V481L159 660H397L515 484V166L397-10H153ZM358 67 435 196V453L358 583H192L115 453V196L192 67H358Z" glyph-name="O" horiz-adv-x="550" unicode="&#x4f;"/><glyph d="M356 650 453 600 510 505V375L453 280 356 230H210Q125 230 125 115 125 0 85 0 45 0 45 325 45 650 170 650H356ZM355 307 430 380V502L356 573H210Q125 573 125 440 125 307 210 307H355Z" glyph-name="P" horiz-adv-x="550" unicode="&#x50;"/><glyph d="M515 180 416 7Q315-7 315-103 315-200 275-200 235-200 235-103 235-7 134 7L35 180V481L159 660H397L515 484V180ZM358 67 435 196V453L358 583H192L115 453V196L192 67H358Z" glyph-name="Q" horiz-adv-x="550" unicode="&#x51;"/><glyph d="M375 297 447 275 487 217V81Q487 0 448 0 408 0 408 81 407 122 407 167T407 265H194Q125 265 125 133 125 0 85 0 45 0 45 325 45 650 164 650H385L497 556V386L400 306Q317 298 375 297ZM204 342H342L417 411V517L343 573H204Q125 573 125 458 125 342 204 342Z" glyph-name="R" horiz-adv-x="550" unicode="&#x52;"/><glyph d="M89 211Q125 211 129 147L227 65H350L418 122V202L381 243 349 266Q324 276 289 287T216 313L136 351 74 425V531L123 612 216 660H379L487 547Q485 452 450 452 413 452 412 519L336 584H223L154 534V454L189 412 239 388Q261 380 278 374T303 366Q318 359 331 355 338 352 356 345T404 326L452 289 498 223V89L392-10H214L101 60 51 155Q51 181 51 192T57 207 89 211Z" glyph-name="S" horiz-adv-x="550" unicode="&#x53;"/><glyph d="M535 613Q535 575 425 575 315 575 315 288 315 0 275 0 235 0 235 288 235 575 125 575 15 575 15 613 15 650 275 650 535 650 535 613Z" glyph-name="T" horiz-adv-x="550" unicode="&#x54;"/><glyph d="M465 650Q505 650 505 450V117L384-10H167L45 117V450Q45 650 85 650 125 650 125 450V147L205 67H346L425 147V450Q425 650 465 650Z" glyph-name="U" horiz-adv-x="550" unicode="&#x55;"/><glyph d="M488 650Q499 650 498 623T487 549 461 445 424 325 383 206 341 102 304 28 276 0Q266 0 249 27T212 101 169 205 127 325 91 444 64 548 53 622 63 650Q106 650 191 382 276 115 361 382 446 650 488 650Z" glyph-name="V" horiz-adv-x="550" unicode="&#x56;"/><glyph d="M488 650Q500 650 503 615T505 522 494 395 475 256 451 128 425 35 399 0Q357 0 317 253 277 507 236 253 196 0 153 0 143 0 131 27T108 101 85 205 66 325 52 444 45 548 48 622 63 650Q106 650 136 434 165 218 199 434 234 650 276 650 319 650 353 434 387 220 417 434 446 650 488 650Z" glyph-name="W" horiz-adv-x="550" unicode="&#x57;"/><glyph d="M412 491Q318 332 412 166 506 0 457 0 407 0 341 129 274 257 204 129 134 0 88 0 43 0 139 166 234 331 144 491 53 650 98 650 143 650 210 527 277 405 347 527 418 650 462 650 507 650 412 491Z" glyph-name="X" horiz-adv-x="550" unicode="&#x58;"/><glyph d="M480 650Q525 650 420 437 315 223 315 112 315 0 275 0 235 0 235 112 235 223 130 437 25 650 70 650 115 650 196 476 277 301 356 476 436 650 480 650Z" glyph-name="Y" horiz-adv-x="550" unicode="&#x59;"/><glyph d="M495 613Q495 575 323 325 151 75 323 75 495 75 495 38 495 0 275 0 55 0 55 38 55 74 228 325 400 575 228 575 55 575 55 613 55 650 275 650 495 650 495 613Z" glyph-name="Z" horiz-adv-x="550" unicode="&#x5a;"/><glyph d="M455-138Q455-178 322-178 188-178 188 311 188 800 322 800 455 800 455 760 455 720 362 720 268 720 268 311 268-98 362-98 455-98 455-138Z" glyph-name="bracketleft" horiz-adv-x="550" unicode="&#x5b;"/><glyph d="M65 679Q73 684 97 657T155 580 228 467 307 335 382 200 443 80 480-8 484-47Q476-52 453-25T395 51 322 164 243 297 168 432 106 552 69 640 65 679Z" glyph-name="backslash" horiz-adv-x="550" unicode="&#x5c;"/><glyph d="M95 760Q95 800 229 800 362 800 362 311 362-178 229-178 95-178 95-138 95-98 189-98 282-98 282 311 282 720 189 720 95 720 95 760Z" glyph-name="bracketright" horiz-adv-x="550" unicode="&#x5d;"/><glyph d="M204 808Q204 759 152 759 100 759 100 808 100 856 152 856 204 856 204 808Z" glyph-name="asciicircum" horiz-adv-x="550" unicode="&#x5e;"/><glyph d="M275-123Q510-123 510-161 510-200 275-200 40-200 40-161 40-123 275-123Z" glyph-name="underscore" horiz-adv-x="550" unicode="&#x5f;"/><glyph d="M326 601Q317 589 284 603T197 654Q144 689 119 716T102 755Q111 767 144 752T232 702Q285 667 309 640T326 601Z" glyph-name="grave" horiz-adv-x="550" unicode="&#x60;"/><glyph d="M447 500Q487 500 487 250 487 0 451 0 415 0 413 11L407 79V133Q407 150 403 140T391 93L311-10H187L100 56 51 174V324L101 443 193 510H319L393 424Q400 389 403 389T407 427Q407 500 447 500ZM332 67 407 170V333L332 432H195L131 334V167L200 67H332Z" glyph-name="a" horiz-adv-x="550" unicode="&#x61;"/><glyph d="M103 700Q143 700 143 530 143 445 150 440T174 510H357L449 443 499 324V174L450 56 363-10H239L159 90Q151 126 147 136T143 131V79L137 11Q135 0 99 0 63 0 63 350 63 700 103 700ZM218 67H350L419 167V334L355 432H218L143 333V170L218 67Z" glyph-name="b" horiz-adv-x="550" unicode="&#x62;"/><glyph d="M488 96 371-10H219L113 53 51 171V327L113 446 219 510H370L487 404Q499 313 463 313 426 313 408 372L339 433H242L172 389 131 306V192L172 110 242 67H340L409 128Q427 188 463 188 499 188 488 96Z" glyph-name="c" horiz-adv-x="550" unicode="&#x63;"/><glyph d="M447 700Q487 700 487 350 487 0 451 0 415 0 413 11L407 79V131Q407 147 403 137T391 90L311-10H187L100 56 51 174V324L101 443 193 510H376Q392 434 399 439T407 530Q407 700 447 700ZM332 67 407 170V333L332 432H195L131 334V167L200 67H332Z" glyph-name="d" horiz-adv-x="550" unicode="&#x64;"/><glyph d="M458 161Q496 161 483 85L378-10H221L112 56 51 174V324L110 443 217 510H395L504 365Q498 229 315 229 131 229 138 156L224 67H391Q419 161 458 161ZM224 433 151 363Q136 301 276 301 416 301 412 365L343 433H224Z" glyph-name="e" horiz-adv-x="550" unicode="&#x65;"/><glyph d="M267 622V515Q267 500 375 500 482 500 482 463 482 425 375 425 267 425 267 213 267 0 227 0 187 0 187 213 187 425 128 425 68 425 68 463 68 500 128 500 187 500 187 515V616L278 700H425Q493 700 493 660 493 620 425 620 391 620 352 620T267 622Z" glyph-name="f" horiz-adv-x="550" unicode="&#x66;"/><glyph d="M533 458Q533 414 469 414 416 434 415 428T454 386V228L398 131 304 79Q248 79 188 76L135 58V18L158 0H371L475-74V-179Q475-200 435-200 395-200 395-189V-126L340-77H55V54L124 94Q172 93 114 115L41 219V357L98 456 193 510H282Q311 499 412 501 477 501 505 491T533 458ZM300 154 374 229V356L300 432H196L121 357V229L196 154H300Z" glyph-name="g" horiz-adv-x="550" unicode="&#x67;"/><glyph d="M362 510 436 477 487 397V166Q487 0 447 0 407 0 407 156V430H228L156 345Q143 294 143 147 143 0 103 0 63 0 63 350 63 700 103 700 143 700 143 526 143 351 161 409L251 510H362Z" glyph-name="h" horiz-adv-x="550" unicode="&#x68;"/><glyph d="M337 652Q337 603 285 603 233 603 233 652 233 700 285 700 337 700 337 652ZM395 75Q465 75 465 38 465 0 275 0 85 0 85 38 85 75 165 75 245 75 245 250 245 425 165 425 85 425 85 463 85 500 205 500 325 500 325 288 325 75 395 75Z" glyph-name="i" horiz-adv-x="550" unicode="&#x69;"/><glyph d="M415 652Q415 603 363 603 311 603 311 652 311 700 363 700 415 700 415 652ZM415 235V-116L324-200H172Q99-200 99-162 99-125 172-125 209-125 237-125T287-126L335-83V198Q335 425 217 425 99 425 99 463 99 500 257 500 415 500 415 235Z" glyph-name="j" horiz-adv-x="550" unicode="&#x6a;"/><glyph d="M63 350Q63 700 103 700 143 700 143 350 143 0 103 0 63 0 63 350ZM389 139Q513 0 463 0 446 0 417 18T354 68 292 139 247 223 236 310 277 390Q384 500 440 500 497 500 381 389 265 278 389 139Z" glyph-name="k" horiz-adv-x="550" unicode="&#x6b;"/><glyph d="M429 75Q482 75 482 38 482 0 429 0H296L205 84V398Q205 625 135 625 64 625 64 663 64 700 135 700H245Q285 700 285 435V117L333 74Q354 75 378 75T429 75Z" glyph-name="l" horiz-adv-x="550" unicode="&#x6c;"/><glyph d="M517 510V166Q517 0 477 0 437 0 437 171V388L416 430H344Q316 333 316 166 316 0 278 0 240 0 240 171V389L222 430H163L123 348Q118 323 116 273T113 149Q113 0 73 0 33 0 33 250 33 500 73 500 113 500 113 429 113 360 126 416L180 510H282Q303 445 312 426T329 433L381 510H517Z" glyph-name="m" horiz-adv-x="550" unicode="&#x6d;"/><glyph d="M362 510 436 477 487 397V166Q487 0 447 0 407 0 407 156V430H228L157 344Q143 290 143 146 143 0 103 0 63 0 63 250 63 500 103 500 143 500 143 426 143 351 161 409L251 510H362Z" glyph-name="n" horiz-adv-x="550" unicode="&#x6e;"/><glyph d="M210-10 108 53 51 170V328L108 446 210 510H341L442 446 499 328V170L443 53 342-10H210ZM341 67 419 163V335L341 433H211L131 335V163L210 67H341Z" glyph-name="o" horiz-adv-x="550" unicode="&#x6f;"/><glyph d="M363 510 450 444 499 326V176L449 57 357-10H174Q143 139 143-29 143-200 103-200 63-200 63 150 63 500 102 500 140 500 140 489L143 430V369Q143 353 147 363T159 410L239 510H363ZM355 68 419 166V333L350 433H218L143 330V167L218 68H355Z" glyph-name="p" horiz-adv-x="550" unicode="&#x70;"/><glyph d="M447 500Q487 500 487 150 487-200 447-200 407-200 407-23 407 153 392 82L314-10H190L100 56 51 174V324L100 442 190 510H318L393 435Q400 401 403 401T407 434Q407 500 447 500ZM334 67 407 170V333L334 433H197L131 335V166L202 67H334Z" glyph-name="q" horiz-adv-x="550" unicode="&#x71;"/><glyph d="M358 428 257 363Q242 324 242 200 242 75 329 75 415 75 415 38 415 0 239 0 63 0 63 38 63 75 113 75 162 75 162 288 162 500 202 500 242 500 242 435 242 403 246 400T259 422L362 510Q464 510 464 469 464 428 358 428Z" glyph-name="r" horiz-adv-x="550" unicode="&#x72;"/><glyph d="M104 161Q140 161 151 120L233 66H356L404 100V166L358 198Q323 204 282 211T194 227L96 298V429L193 510H354L453 424Q455 349 420 349 384 349 371 431H228L176 397V335L232 300Q268 293 309 285T398 269L484 202V66L391-10H217L107 54 64 135Q67 161 104 161Z" glyph-name="s" horiz-adv-x="550" unicode="&#x73;"/><glyph d="M374 425Q275 425 275 298V117L323 74Q344 75 368 75T419 75Q472 75 472 38 472 0 419 0H286L195 84V298Q195 425 132 425 68 425 68 463 68 500 132 500 195 500 195 565 195 630 235 630 275 630 275 565 275 500 374 500 472 500 472 463 472 425 374 425Z" glyph-name="t" horiz-adv-x="550" unicode="&#x74;"/><glyph d="M447 500Q487 500 487 250 487 0 447 0 407 0 407 76 407 153 389 88L304-10H188L114 23 63 103V334Q63 500 103 500 143 500 143 344V70H322L393 156Q407 210 407 354 407 500 447 500Z" glyph-name="u" horiz-adv-x="550" unicode="&#x75;"/><glyph d="M469 500Q481 500 479 473T465 402 433 304 391 197 346 99 305 27 275 0Q264 0 246 27T205 98 160 196 118 303 86 401 72 473 82 500Q125 500 200 299 274 98 350 299 425 500 469 500Z" glyph-name="v" horiz-adv-x="550" unicode="&#x76;"/><glyph d="M469 500Q481 500 484 473T485 402 472 304 451 197 426 99 399 27 376 0Q340 0 305 177 288 266 270 266T235 177Q201 0 164 0 154 0 142 27T117 98 93 196 75 303 65 401 66 473 82 500Q126 500 151 322 177 144 205 322 232 500 271 500 309 500 336 318 349 227 363 227T394 318Q426 500 469 500Z" glyph-name="w" horiz-adv-x="550" unicode="&#x77;"/><glyph d="M462 0Q413 0 344 95 274 190 206 95 137 0 89 0 40 0 134 127 227 253 134 377 40 500 89 500 137 500 206 410 275 320 339 410 404 500 452 500 499 500 411 379 322 256 416 129 511 0 462 0Z" glyph-name="x" horiz-adv-x="550" unicode="&#x78;"/><glyph d="M470 500Q481 500 477 471T457 391 420 279 370 150 315 22 262-91 217-170 186-200Q144-200 189-96 234 6 136 254 39 500 81 500 123 500 199 302 275 105 351 302 428 500 470 500Z" glyph-name="y" horiz-adv-x="550" unicode="&#x79;"/><glyph d="M326 75Q479 75 479 38 479 0 275 0 71 0 71 38 71 75 225 250 379 425 225 425 71 425 71 463 71 500 274 500 476 500 476 463 476 425 325 250 174 75 326 75Z" glyph-name="z" horiz-adv-x="550" unicode="&#x7a;"/><glyph d="M411 760Q411 720 339 720 267 720 267 692L283 633Q300 584 316 540L333 478V341Q213 311 333 281V144L316 82Q300 39 283-11L267-70Q267-98 339-98 411-98 411-138 411-178 295-178 178-178 175-159V-95L200-3Q211 29 221 55T238 103L253 153V217L184 271Q118 271 118 311 118 351 184 351L253 405V469L238 519Q231 540 221 566T200 625L175 717V781Q178 800 295 800 411 800 411 760Z" glyph-name="braceleft" horiz-adv-x="550" unicode="&#x7b;"/><glyph d="M275 800Q310 800 310 320 310-160 275-160 240-160 240 320 240 800 275 800Z" glyph-name="bar" horiz-adv-x="550" unicode="&#x7c;"/><glyph d="M139 760Q139 800 255 800 372 800 375 781V717L350 625Q339 593 330 567T312 519L297 469V405L366 351Q432 351 432 311 432 271 366 271L297 217V153L312 103Q320 82 329 56T350-3L375-95V-159Q372-178 255-178 139-178 139-138 139-98 211-98 283-98 283-70L267-11Q251 39 234 82L217 144V281Q337 311 217 341V478L234 540Q251 584 267 633L283 692Q283 720 211 720 139 720 139 760Z" glyph-name="braceright" horiz-adv-x="550" unicode="&#x7d;"/><glyph d="M327 273Q327 224 275 224 223 224 223 273 223 322 275 322 327 322 327 273Z" glyph-name="asciitilde" horiz-adv-x="550" unicode="&#x7e;"/><glyph glyph-name="uni00A0" horiz-adv-x="550" unicode="&#xa0;"/><glyph d="M327 492Q327 443 275 443 223 443 223 492 223 541 275 541 327 541 327 492ZM275-109Q236-109 236 115 236 340 275 340 314 340 314 115 314-109 275-109Z" glyph-name="exclamdown" horiz-adv-x="550" unicode="&#xa1;"/><glyph d="M340 67 409 128Q427 188 463 188 499 188 488 96L371-10H270Q263-9 255-54 251-76 238-85T210-93 187-76 182-38Q190 9 127 37L51 162V326L111 443 215 508Q278 510 287 559 291 583 304 593T332 601 356 585 361 547Q353 500 412 482L489 384Q500 313 463 313 426 313 399 401 379 408 362 387T332 328 308 245 291 160 282 93 280 67H340ZM131 194 170 113Q181 105 193 125T216 181 234 261 241 342 234 403 207 424L131 327V194Z" glyph-name="cent" horiz-adv-x="550" unicode="&#xa2;"/><glyph d="M274 152 223 91Q197 75 329 75 461 75 461 38 461 0 286 0 111 0 111 38V73L158 107 196 163V231Q183 262 131 262 80 262 80 292 80 322 116 322 152 322 128 366L99 446V537L147 617 232 660H340L424 614 470 533Q470 484 430 484 390 484 390 528L329 585H241L179 533V448L203 384 232 330Q237 322 308 322 380 322 380 292 380 262 322 262 264 262 274 231V152Z" glyph-name="sterling" horiz-adv-x="550" unicode="&#xa3;"/><glyph d="M459 253Q427 206 466 169 486 150 488 133T480 105 453 97 417 119Q378 157 329 126H219Q173 157 133 119 114 100 97 98T70 105 62 132 84 169Q122 207 91 252V368Q122 412 84 452 65 471 63 488T69 515 96 523 133 501Q172 463 218 494H329Q378 463 417 502 436 521 453 523T480 515 488 488 466 452Q428 414 459 367V253ZM322 198 387 264V357L322 422H229L163 357V264L229 198H322Z" glyph-name="currency" horiz-adv-x="550" unicode="&#xa4;"/><glyph d="M428 452Q331 253 364 253 397 253 397 223 397 193 247 193 97 193 97 223 97 253 159 253 220 253 123 452 26 650 70 650 115 650 196 478 277 306 356 478 435 650 480 650 526 650 428 452ZM97 113Q97 143 247 143 397 143 397 113 397 83 356 83 315 83 315 42 315 0 275 0 235 0 235 42 235 83 166 83 97 83 97 113Z" glyph-name="yen" horiz-adv-x="550" unicode="&#xa5;"/><glyph d="M310 628Q310 455 275 455 240 455 240 628 240 800 275 800 310 800 310 628ZM310 13Q310-160 275-160 240-160 240 13 240 185 275 185 310 185 310 13Z" glyph-name="brokenbar" horiz-adv-x="550" unicode="&#xa6;"/><glyph d="M417 207 463 150V42L373-36H219L123 28 83 109Q86 135 123 135 159 135 170 94L237 41H339L383 76V129L357 157 315 174Q293 180 263 189T191 210L90 282V379L143 435Q200 441 142 466L90 522V628L184 710H346L440 623Q442 549 407 549 372 549 365 592L310 631H218L170 596V546L199 518 242 502Q265 495 291 488T345 472L416 439 463 378V290L415 236Q368 232 417 207ZM170 326 201 296 245 277Q302 256 340 260L383 301V361L340 390Q312 400 296 406T273 414Q266 416 253 416T217 413L170 376V326Z" glyph-name="section" horiz-adv-x="550" unicode="&#xa7;"/><glyph d="M204 651Q204 602 152 602 100 602 100 651 100 700 152 700 204 700 204 651ZM382 651Q382 602 330 602 278 602 278 651 278 700 330 700 382 700 382 651Z" glyph-name="dieresis" horiz-adv-x="550" unicode="&#xa8;"/><glyph d="M201 54 84 128 18 256V408L83 535 201 609H351L468 535 533 408V256L468 128 350 54H201ZM331 126 415 181 461 275V389L415 482 331 537H220L136 482 90 389V275L136 181 221 126H331ZM391 260 328 195H227L160 272V390L228 468H328L390 404Q392 351 360 351 329 351 321 402H254L227 363V299L253 261H323Q329 313 360 313 391 313 391 260Z" glyph-name="copyright" horiz-adv-x="550" unicode="&#xa9;"/><glyph d="M446 700Q486 700 486 505 486 310 450 310 414 310 412 321L406 386V419Q406 440 389 381L312 300H195L110 353 63 444V559L111 655 200 710H320L392 644Q399 616 402 616T406 644Q406 700 446 700ZM312 377 374 412 406 468V560L334 632H204L143 561V446L210 377H312Z" glyph-name="ordfeminine" horiz-adv-x="550" unicode="&#xaa;"/><glyph d="M271 361Q198 279 271 198 308 157 319 128T318 89 273 97 191 170Q158 206 152 244T157 320 191 388 239 440 287 470 318 470Q345 442 271 361ZM432 309Q405 279 432 250 445 235 444 219T432 194 400 189 354 223Q334 245 333 269T341 315 369 352 404 371 432 365Q458 338 432 309Z" glyph-name="guillemotleft" horiz-adv-x="550" unicode="&#xab;"/><glyph d="M480 283Q480 160 440 160 400 160 400 245 400 330 235 330 70 330 70 368 70 405 275 405 480 405 480 283Z" glyph-name="logicalnot" horiz-adv-x="550" unicode="&#xac;"/><glyph d="M275 307Q420 307 420 270 420 233 275 233 130 233 130 270 130 307 275 307Z" glyph-name="uni00AD" horiz-adv-x="550" unicode="&#xad;"/><glyph d="M201 105 84 179 18 307V459L83 586 201 660H351L468 586 533 459V307L468 179 350 105H201ZM331 177 415 232 461 326V440L415 533 331 588H220L136 533 90 440V326L136 232 221 177H331ZM187 388Q187 519 231 519H330L381 476V408L358 371Q329 366 356 362L377 333V283Q377 257 344 257 311 257 311 283V323L290 337H259Q253 337 253 297 253 257 220 257 187 257 187 388ZM263 397H293L315 414Q316 422 316 433T316 457H263Q252 457 252 427 252 397 263 397Z" glyph-name="registered" horiz-adv-x="550" unicode="&#xae;"/><glyph d="M250 699Q400 699 400 669 400 639 250 639 100 639 100 669 100 699 250 699Z" glyph-name="overscore" horiz-adv-x="550" unicode="&#xaf;"/><glyph d="M223 411 150 485V589L223 662H327L400 589V485L327 411H223ZM300 475 335 511V562L300 598H250L215 562V511L250 475H300Z" glyph-name="degree" horiz-adv-x="550" unicode="&#xb0;"/><glyph d="M383 325Q455 325 455 290 455 255 383 255 310 255 310 193 310 130 275 130 240 130 240 193 240 255 168 255 95 255 95 290 95 325 168 325 240 325 240 388 240 450 275 450 310 450 310 388 310 325 383 325ZM105 28Q105 65 275 65 445 65 445 28 445-10 275-10 105-10 105 28Z" glyph-name="plusminus" horiz-adv-x="550" unicode="&#xb1;"/><glyph d="M156 293Q156 325 239 411L316 506V593H243L219 566Q219 551 188 551 157 551 152 596L219 658H323L384 599V504L326 419Q272 364 254 344 235 325 315 325 394 325 394 293 394 260 275 260 156 260 156 293Z" glyph-name="uni00B2" horiz-adv-x="550" unicode="&#xb2;"/><glyph d="M340 460 394 412V319L329 250H240L182 283 153 339Q156 370 187 370 217 370 217 346L248 316H329V400L292 432H246Q235 432 235 463 235 493 246 493H323V566L295 592H251L222 566Q222 546 192 546 162 546 159 576L185 627 239 657H306L359 628 389 582V476Q340 471 328 467T340 460Z" glyph-name="uni00B3" horiz-adv-x="550" unicode="&#xb3;"/><glyph d="M196 702Q251 737 284 752T326 755Q334 743 309 716T231 654Q177 618 144 604T102 601Q94 613 118 640T196 702Z" glyph-name="acute" horiz-adv-x="550" unicode="&#xb4;"/><glyph d="M467 96 499 70Q530 70 530 30 530-10 462-10L387 63V143Q387 155 384 144T373 98L296-10H155Q123 39 123-81 123-200 83-200 43-200 43 150 43 500 83 500 123 500 123 344V70H302L373 156Q387 210 387 354 387 500 427 500 467 500 467 315V96Z" glyph-name="uni00B5" horiz-adv-x="550" unicode="&#xb5;"/><glyph d="M505 325Q505 0 466 0 427 0 427 134 427 268 400 268 373 268 373 134 373 0 334 0 295 0 295 134 295 268 274 268H197L103 315 47 402V516L103 603 197 650H379Q505 650 505 325ZM427 459Q427 573 343 573H198L127 518V400L198 345H343Q427 345 427 459Z" glyph-name="paragraph" horiz-adv-x="550" unicode="&#xb6;"/><glyph d="M327 273Q327 224 275 224 223 224 223 273 223 322 275 322 327 322 327 273Z" glyph-name="middot" horiz-adv-x="550" unicode="&#xb7;"/><glyph d="M237-54Q216-27 214-8T222 17 252 12 294-31L332-86V-181L271-240H167L100-178Q105-133 136-133 167-133 167-148L191-175H264V-88L237-54Z" glyph-name="cedilla" horiz-adv-x="550" unicode="&#xb8;"/><glyph d="M356 325Q392 325 392 293 392 260 275 260 158 260 158 293 158 325 201 325 244 325 244 455 244 584 204 584 164 584 164 617 164 650 242 650 319 650 319 488 319 325 356 325Z" glyph-name="uni00B9" horiz-adv-x="550" unicode="&#xb9;"/><glyph d="M213 290 115 344 61 439V559L115 655 213 710H339L436 655 489 559V439L436 344 339 290H213ZM336 364 410 439V559L337 636H215L140 559V439L214 364H336Z" glyph-name="ordmasculine" horiz-adv-x="550" unicode="&#xba;"/><glyph d="M279 361Q225 421 225 451 225 463 232 470 236 474 245 474 262 474 287 458T339 413 383 348 401 272Q401 247 392 221T359 170Q318 125 289 106T243 86Q226 86 226 104 226 119 239 143T279 198Q316 238 316 279 316 321 279 361ZM118 309Q105 325 105 337 105 350 118 365 125 372 137 372 153 372 172 359T204 324 218 277Q218 264 213 250T196 223Q179 204 164 196T137 188Q123 188 115 197T106 220Q106 237 118 250 132 266 132 279 132 293 118 309Z" glyph-name="guillemotright" horiz-adv-x="550" unicode="&#xbb;"/><glyph d="M356 325Q392 325 392 293 392 260 275 260 158 260 158 293 158 325 201 325 244 325 244 455 244 584 204 584 164 584 164 617 164 650 242 650 319 650 319 488 319 325 356 325ZM683 713Q690 711 685 678T665 590 629 468 584 330 535 194 488 76 450-5 427-32Q420-29 425 4T445 92 481 213 526 351 574 487 621 604 659 685 683 713ZM957 109Q957 76 937 76 917 76 917 38 917 0 883 0 849 0 849 38 849 76 771 76 693 76 693 106 693 116 704 140T732 197 771 263 814 325 854 372 884 390Q917 390 917 266 917 141 937 141 957 141 957 109ZM809 141Q849 141 849 211 849 279 809 211 769 141 809 141Z" glyph-name="onequarter" horiz-adv-x="1100" unicode="&#xbc;"/><glyph d="M356 325Q392 325 392 293 392 260 275 260 158 260 158 293 158 325 201 325 244 325 244 455 244 584 204 584 164 584 164 617 164 650 242 650 319 650 319 488 319 325 356 325ZM683 713Q690 711 685 678T665 590 629 468 584 330 535 194 488 76 450-5 427-32Q420-29 425 4T445 92 481 213 526 351 574 487 621 604 659 685 683 713ZM706 33Q706 65 789 151L866 246V333H793L769 306Q769 291 738 291 707 291 702 336L769 398H873L934 339V244L876 159Q822 104 804 84 785 65 865 65 944 65 944 33 944 0 825 0 706 0 706 33Z" glyph-name="onehalf" horiz-adv-x="1100" unicode="&#xbd;"/><glyph d="M340 460 394 412V319L329 250H240L182 283 153 339Q156 370 187 370 217 370 217 346L248 316H329V400L292 432H246Q235 432 235 463 235 493 246 493H323V566L295 592H251L222 566Q222 546 192 546 162 546 159 576L185 627 239 657H306L359 628 389 582V476Q340 471 328 467T340 460ZM683 713Q690 711 685 678T665 590 629 468 584 330 535 194 488 76 450-5 427-32Q420-29 425 4T445 92 481 213 526 351 574 487 621 604 659 685 683 713ZM957 109Q957 76 937 76 917 76 917 38 917 0 883 0 849 0 849 38 849 76 771 76 693 76 693 106 693 116 704 140T732 197 771 263 814 325 854 372 884 390Q917 390 917 266 917 141 937 141 957 141 957 109ZM809 141Q849 141 849 211 849 279 809 211 769 141 809 141Z" glyph-name="threequarters" horiz-adv-x="1100" unicode="&#xbe;"/><glyph d="M341 537Q341 488 289 488 238 488 238 537 238 586 289 586 341 586 341 537ZM215-74 127-28 79 52V181L170 276Q248 285 248 335 248 385 288 385 328 385 328 298 328 212 306 212H227L159 149V56L220 1H327L391 57Q391 102 431 102 471 102 471 53L420-27 330-74H215Z" glyph-name="questiondown" horiz-adv-x="550" unicode="&#xbf;"/><glyph d="M477 0Q460 0 446 17T420 59 400 110 388 153 384 170H274Q164 170 139 85 114 0 72 0 62 0 62 28T72 103 96 208 131 330 170 451 211 557 247 632 274 660Q285 660 301 632T337 557 378 452 418 330 452 209 477 103 487 28 477 0ZM274 246Q362 246 318 396 274 546 230 396 187 246 274 246ZM339 701Q330 689 297 703T210 754Q157 789 132 816T115 855Q124 867 157 852T245 802Q298 767 322 740T339 701Z" glyph-name="Agrave" horiz-adv-x="550" unicode="&#xc0;"/><glyph d="M477 0Q460 0 446 17T420 59 400 110 388 153 384 170H274Q164 170 139 85 114 0 72 0 62 0 62 28T72 103 96 208 131 330 170 451 211 557 247 632 274 660Q285 660 301 632T337 557 378 452 418 330 452 209 477 103 487 28 477 0ZM274 246Q362 246 318 396 274 546 230 396 187 246 274 246ZM305 802Q360 837 393 852T435 855Q443 843 418 816T340 754Q286 718 253 704T211 701Q203 713 227 740T305 802Z" glyph-name="Aacute" horiz-adv-x="550" unicode="&#xc1;"/><glyph d="M477 0Q460 0 446 17T420 59 400 110 388 153 384 170H274Q164 170 139 85 114 0 72 0 62 0 62 28T72 103 96 208 131 330 170 451 211 557 247 632 274 660Q285 660 301 632T337 557 378 452 418 330 452 209 477 103 487 28 477 0ZM274 246Q362 246 318 396 274 546 230 396 187 246 274 246ZM635 797Q682 755 697 730T705 699 671 703 613 744Q581 773 556 782T507 783 450 744Q417 714 392 703T359 698 365 730 427 797Q482 847 531 847T635 797Z" glyph-name="Acircumflex" horiz-adv-x="550" unicode="&#xc2;"/><glyph d="M477 0Q460 0 446 17T420 59 400 110 388 153 384 170H274Q164 170 139 85 114 0 72 0 62 0 62 28T72 103 96 208 131 330 170 451 211 557 247 632 274 660Q285 660 301 632T337 557 378 452 418 330 452 209 477 103 487 28 477 0ZM274 246Q362 246 318 396 274 546 230 396 187 246 274 246ZM692 826Q725 826 727 818V756L672 708H598L553 719Q539 729 527 738T504 754L473 780H431L404 739Q404 718 371 718 339 718 337 726V788L395 836H475L521 825Q550 806 572 789L601 764H659Q659 790 667 808T692 826Z" glyph-name="Atilde" horiz-adv-x="550" unicode="&#xc3;"/><glyph d="M477 0Q460 0 446 17T420 59 400 110 388 153 384 170H274Q164 170 139 85 114 0 72 0 62 0 62 28T72 103 96 208 131 330 170 451 211 557 247 632 274 660Q285 660 301 632T337 557 378 452 418 330 452 209 477 103 487 28 477 0ZM274 246Q362 246 318 396 274 546 230 396 187 246 274 246ZM235 791Q235 742 183 742 131 742 131 791 131 840 183 840 235 840 235 791ZM413 791Q413 742 361 742 309 742 309 791 309 840 361 840 413 840 413 791Z" glyph-name="Adieresis" horiz-adv-x="550" unicode="&#xc4;"/><glyph d="M477 0Q460 0 446 17T420 59 400 110 388 153 384 170H274Q164 170 139 85 114 0 72 0 62 0 62 28T72 103 96 208 131 330 170 451 211 557 247 632 274 660Q285 660 301 632T337 557 378 452 418 330 452 209 477 103 487 28 477 0ZM274 246Q362 246 318 396 274 546 230 396 187 246 274 246ZM223 699 150 763V847L223 910H327L400 847V763L327 699H223ZM297 754 339 782V828L297 855H253L211 828V782L253 754H297Z" glyph-name="Aring" horiz-adv-x="550" unicode="&#xc5;"/><glyph d="M428 75Q500 75 500 38 500 0 388 0 275 0 275 91 275 181 220 181 166 181 140 91 115 0 72 0 62 0 61 27T68 101 91 205 128 325 176 444 233 548 296 622 363 650Q499 650 499 613 499 575 427 575 355 575 355 468 355 361 405 361 455 361 455 324 455 286 405 286 355 286 355 181 355 75 428 75ZM230 251Q275 251 275 409 275 567 230 409 185 251 230 251Z" glyph-name="AE" horiz-adv-x="550" unicode="&#xc6;"/><glyph d="M468 217Q505 217 505 109L395-10H307Q312-14 316-19T324-31L362-86V-181L301-240H197L130-178Q135-133 166-133 197-133 197-148L221-175H294V-88L267-54Q247-28 244-10H160L35 166V484L160 660H395L507 541Q515 431 478 431 441 431 427 509L357 585H199L115 453V196L199 65H357L424 141Q430 217 468 217Z" glyph-name="Ccedilla" horiz-adv-x="550" unicode="&#xc7;"/><glyph d="M316 75Q506 75 506 38 506 0 276 0 45 0 45 325 45 650 275 650 505 650 505 613 505 575 315 575 125 575 125 468 125 361 281 361 436 361 436 324 436 286 281 286 125 286 125 181 125 75 316 75ZM369 701Q360 689 327 703T240 754Q187 789 162 816T145 855Q154 867 187 852T275 802Q328 767 352 740T369 701Z" glyph-name="Egrave" horiz-adv-x="550" unicode="&#xc8;"/><glyph d="M316 75Q506 75 506 38 506 0 276 0 45 0 45 325 45 650 275 650 505 650 505 613 505 575 315 575 125 575 125 468 125 361 281 361 436 361 436 324 436 286 281 286 125 286 125 181 125 75 316 75ZM335 802Q390 837 423 852T465 855Q473 843 448 816T370 754Q316 718 283 704T241 701Q233 713 257 740T335 802Z" glyph-name="Eacute" horiz-adv-x="550" unicode="&#xc9;"/><glyph d="M316 75Q506 75 506 38 506 0 276 0 45 0 45 325 45 650 275 650 505 650 505 613 505 575 315 575 125 575 125 468 125 361 281 361 436 361 436 324 436 286 281 286 125 286 125 181 125 75 316 75ZM409 797Q456 755 471 730T479 699 445 703 387 744Q355 773 330 782T281 783 224 744Q191 714 166 703T133 698 139 730 201 797Q256 847 305 847T409 797Z" glyph-name="Ecircumflex" horiz-adv-x="550" unicode="&#xca;"/><glyph d="M316 75Q506 75 506 38 506 0 276 0 45 0 45 325 45 650 275 650 505 650 505 613 505 575 315 575 125 575 125 468 125 361 281 361 436 361 436 324 436 286 281 286 125 286 125 181 125 75 316 75ZM239 791Q239 742 187 742 135 742 135 791 135 840 187 840 239 840 239 791ZM417 791Q417 742 365 742 313 742 313 791 313 840 365 840 417 840 417 791Z" glyph-name="Edieresis" horiz-adv-x="550" unicode="&#xcb;"/><glyph d="M380 575Q315 575 315 325 315 75 380 75 445 75 445 38 445 0 380 0H170Q105 0 105 38 105 75 170 75 235 75 235 325 235 575 170 575 105 575 105 613 105 650 275 650 445 650 445 613 445 575 380 575ZM339 701Q330 689 297 703T210 754Q157 789 132 816T115 855Q124 867 157 852T245 802Q298 767 322 740T339 701Z" glyph-name="Igrave" horiz-adv-x="550" unicode="&#xcc;"/><glyph d="M380 575Q315 575 315 325 315 75 380 75 445 75 445 38 445 0 380 0H170Q105 0 105 38 105 75 170 75 235 75 235 325 235 575 170 575 105 575 105 613 105 650 275 650 445 650 445 613 445 575 380 575ZM305 802Q360 837 393 852T435 855Q443 843 418 816T340 754Q286 718 253 704T211 701Q203 713 227 740T305 802Z" glyph-name="Iacute" horiz-adv-x="550" unicode="&#xcd;"/><glyph d="M380 575Q315 575 315 325 315 75 380 75 445 75 445 38 445 0 380 0H170Q105 0 105 38 105 75 170 75 235 75 235 325 235 575 170 575 105 575 105 613 105 650 275 650 445 650 445 613 445 575 380 575ZM635 797Q682 755 697 730T705 699 671 703 613 744Q581 773 556 782T507 783 450 744Q417 714 392 703T359 698 365 730 427 797Q482 847 531 847T635 797Z" glyph-name="Icircumflex" horiz-adv-x="550" unicode="&#xce;"/><glyph d="M380 575Q315 575 315 325 315 75 380 75 445 75 445 38 445 0 380 0H170Q105 0 105 38 105 75 170 75 235 75 235 325 235 575 170 575 105 575 105 613 105 650 275 650 445 650 445 613 445 575 380 575ZM238 791Q238 742 186 742 134 742 134 791 134 840 186 840 238 840 238 791ZM416 791Q416 742 364 742 312 742 312 791 312 840 364 840 416 840 416 791Z" glyph-name="Idieresis" horiz-adv-x="550" unicode="&#xcf;"/><glyph d="M515 466V184L370 0H127Q45 0 45 325 45 650 127 650H370L515 466ZM338 77 436 217V438L339 573H167Q125 573 125 325 125 77 167 77H338ZM381 611Q531 611 531 581 531 551 381 551 231 551 231 581 231 611 381 611Z" glyph-name="Eth" horiz-adv-x="550" unicode="&#xd0;"/><glyph d="M465 650Q505 650 505 325 505 0 465 0 425 0 275 255 125 509 125 255 125 0 85 0 45 0 45 325 45 650 85 650 125 650 275 393 425 135 425 393 425 650 465 650ZM692 826Q725 826 727 818V756L672 708H598L553 719Q539 729 527 738T504 754L473 780H431L404 739Q404 718 371 718 339 718 337 726V788L395 836H475L521 825Q550 806 572 789L601 764H659Q659 790 667 808T692 826Z" glyph-name="Ntilde" horiz-adv-x="550" unicode="&#xd1;"/><glyph d="M153-10 35 166V481L159 660H397L515 484V166L397-10H153ZM358 67 435 196V453L358 583H192L115 453V196L192 67H358ZM339 701Q330 689 297 703T210 754Q157 789 132 816T115 855Q124 867 157 852T245 802Q298 767 322 740T339 701Z" glyph-name="Ograve" horiz-adv-x="550" unicode="&#xd2;"/><glyph d="M153-10 35 166V481L159 660H397L515 484V166L397-10H153ZM358 67 435 196V453L358 583H192L115 453V196L192 67H358ZM305 802Q360 837 393 852T435 855Q443 843 418 816T340 754Q286 718 253 704T211 701Q203 713 227 740T305 802Z" glyph-name="Oacute" horiz-adv-x="550" unicode="&#xd3;"/><glyph d="M153-10 35 166V481L159 660H397L515 484V166L397-10H153ZM358 67 435 196V453L358 583H192L115 453V196L192 67H358ZM635 797Q682 755 697 730T705 699 671 703 613 744Q581 773 556 782T507 783 450 744Q417 714 392 703T359 698 365 730 427 797Q482 847 531 847T635 797Z" glyph-name="Ocircumflex" horiz-adv-x="550" unicode="&#xd4;"/><glyph d="M153-10 35 166V481L159 660H397L515 484V166L397-10H153ZM358 67 435 196V453L358 583H192L115 453V196L192 67H358ZM692 826Q725 826 727 818V756L672 708H598L553 719Q539 729 527 738T504 754L473 780H431L404 739Q404 718 371 718 339 718 337 726V788L395 836H475L521 825Q550 806 572 789L601 764H659Q659 790 667 808T692 826Z" glyph-name="Otilde" horiz-adv-x="550" unicode="&#xd5;"/><glyph d="M153-10 35 166V481L159 660H397L515 484V166L397-10H153ZM358 67 435 196V453L358 583H192L115 453V196L192 67H358ZM238 791Q238 742 186 742 134 742 134 791 134 840 186 840 238 840 238 791ZM416 791Q416 742 364 742 312 742 312 791 312 840 364 840 416 840 416 791Z" glyph-name="Odieresis" horiz-adv-x="550" unicode="&#xd6;"/><glyph d="M376 322Q324 270 376 219 402 193 407 173T403 143 373 138 327 170Q275 221 224 170 198 144 178 139T148 142 143 172 175 219Q226 270 175 322 149 348 144 368T147 397 177 402 224 371Q275 319 327 371 353 397 373 402T402 398 407 368 376 322Z" glyph-name="multiply" horiz-adv-x="550" unicode="&#xd7;"/><glyph d="M443 591 515 484V166L397-10H153L129 26Q112 3 101-9T84-19Q79-16 85 5T106 60L35 166V481L159 660H397L420 625Q437 648 449 660T465 670Q470 667 464 646T443 591ZM115 196 145 145Q176 209 216 283T297 428 374 556L358 583H192L115 453V196ZM358 67 435 196V453L404 506Q373 443 333 369T252 223 175 95L192 67H358Z" glyph-name="Oslash" horiz-adv-x="550" unicode="&#xd8;"/><glyph d="M465 650Q505 650 505 450V117L384-10H167L45 117V450Q45 650 85 650 125 650 125 450V147L205 67H346L425 147V450Q425 650 465 650ZM339 701Q330 689 297 703T210 754Q157 789 132 816T115 855Q124 867 157 852T245 802Q298 767 322 740T339 701Z" glyph-name="Ugrave" horiz-adv-x="550" unicode="&#xd9;"/><glyph d="M465 650Q505 650 505 450V117L384-10H167L45 117V450Q45 650 85 650 125 650 125 450V147L205 67H346L425 147V450Q425 650 465 650ZM305 802Q360 837 393 852T435 855Q443 843 418 816T340 754Q286 718 253 704T211 701Q203 713 227 740T305 802Z" glyph-name="Uacute" horiz-adv-x="550" unicode="&#xda;"/><glyph d="M465 650Q505 650 505 450V117L384-10H167L45 117V450Q45 650 85 650 125 650 125 450V147L205 67H346L425 147V450Q425 650 465 650ZM635 797Q682 755 697 730T705 699 671 703 613 744Q581 773 556 782T507 783 450 744Q417 714 392 703T359 698 365 730 427 797Q482 847 531 847T635 797Z" glyph-name="Ucircumflex" horiz-adv-x="550" unicode="&#xdb;"/><glyph d="M465 650Q505 650 505 450V117L384-10H167L45 117V450Q45 650 85 650 125 650 125 450V147L205 67H346L425 147V450Q425 650 465 650ZM240 791Q240 742 188 742 136 742 136 791 136 840 188 840 240 840 240 791ZM418 791Q418 742 366 742 314 742 314 791 314 840 366 840 418 840 418 791Z" glyph-name="Udieresis" horiz-adv-x="550" unicode="&#xdc;"/><glyph d="M480 650Q525 650 420 437 315 223 315 112 315 0 275 0 235 0 235 112 235 223 130 437 25 650 70 650 115 650 196 476 277 301 356 476 436 650 480 650ZM305 802Q360 837 393 852T435 855Q443 843 418 816T340 754Q286 718 253 704T211 701Q203 713 227 740T305 802Z" glyph-name="Yacute" horiz-adv-x="550" unicode="&#xdd;"/><glyph d="M356 535 453 485 510 390V260L453 165 356 115H210Q125 115 125 58 125 0 85 0 45 0 45 325 45 650 85 650 125 650 125 593 125 535 210 535H356ZM355 192 430 265V387L356 458H210Q125 458 125 325 125 192 210 192H355Z" glyph-name="Thorn" horiz-adv-x="550" unicode="&#xde;"/><glyph d="M394 199 489 114V-21L437-108 336-160Q266-160 266-123 266-86 338-86L409-25V87L343 150H256Q237 150 237 187 237 225 292 325 347 425 251 425 155 425 155 213 155 0 115 0 75 0 75 265V616L166 700H268Q291 700 291 660 291 620 268 620 257 620 229 620T155 622V515Q155 500 296 500 437 500 437 464 437 426 376 316 315 204 394 199Z" glyph-name="germandbls" horiz-adv-x="550" unicode="&#xdf;"/><glyph d="M447 500Q487 500 487 250 487 0 451 0 415 0 413 11L407 79V133Q407 150 403 140T391 93L311-10H187L100 56 51 174V324L101 443 193 510H319L393 424Q400 389 403 389T407 427Q407 500 447 500ZM332 67 407 170V333L332 432H195L131 334V167L200 67H332ZM339 807Q330 795 297 809T210 860Q157 895 132 922T115 961Q124 973 157 958T245 908Q298 873 322 846T339 807Z" glyph-name="agrave" horiz-adv-x="550" unicode="&#xe0;"/><glyph d="M447 500Q487 500 487 250 487 0 451 0 415 0 413 11L407 79V133Q407 150 403 140T391 93L311-10H187L100 56 51 174V324L101 443 193 510H319L393 424Q400 389 403 389T407 427Q407 500 447 500ZM332 67 407 170V333L332 432H195L131 334V167L200 67H332ZM305 908Q360 943 393 958T435 961Q443 949 418 922T340 860Q286 824 253 810T211 807Q203 819 227 846T305 908Z" glyph-name="aacute" horiz-adv-x="550" unicode="&#xe1;"/><glyph d="M447 500Q487 500 487 250 487 0 451 0 415 0 413 11L407 79V133Q407 150 403 140T391 93L311-10H187L100 56 51 174V324L101 443 193 510H319L393 424Q400 389 403 389T407 427Q407 500 447 500ZM332 67 407 170V333L332 432H195L131 334V167L200 67H332ZM635 903Q682 861 697 836T705 805 671 809 613 850Q581 879 556 888T507 889 450 850Q417 820 392 809T359 804 365 836 427 903Q482 953 531 953T635 903Z" glyph-name="acircumflex" horiz-adv-x="550" unicode="&#xe2;"/><glyph d="M447 500Q487 500 487 250 487 0 451 0 415 0 413 11L407 79V133Q407 150 403 140T391 93L311-10H187L100 56 51 174V324L101 443 193 510H319L393 424Q400 389 403 389T407 427Q407 500 447 500ZM332 67 407 170V333L332 432H195L131 334V167L200 67H332ZM692 932Q725 932 727 924V862L672 814H598L553 825Q539 835 527 844T504 860L473 886H431L404 845Q404 824 371 824 339 824 337 832V894L395 942H475L521 931Q550 912 572 895L601 870H659Q659 896 667 914T692 932Z" glyph-name="atilde" horiz-adv-x="550" unicode="&#xe3;"/><glyph d="M447 500Q487 500 487 250 487 0 451 0 415 0 413 11L407 79V133Q407 150 403 140T391 93L311-10H187L100 56 51 174V324L101 443 193 510H319L393 424Q400 389 403 389T407 427Q407 500 447 500ZM332 67 407 170V333L332 432H195L131 334V167L200 67H332ZM226 651Q226 602 174 602 122 602 122 651 122 700 174 700 226 700 226 651ZM404 651Q404 602 352 602 300 602 300 651 300 700 352 700 404 700 404 651Z" glyph-name="adieresis" horiz-adv-x="550" unicode="&#xe4;"/><glyph d="M447 500Q487 500 487 250 487 0 451 0 415 0 413 11L407 79V133Q407 150 403 140T391 93L311-10H187L100 56 51 174V324L101 443 193 510H319L393 424Q400 389 403 389T407 427Q407 500 447 500ZM332 67 407 170V333L332 432H195L131 334V167L200 67H332ZM223 805 150 869V953L223 1016H327L400 953V869L327 805H223ZM297 860 339 888V934L297 961H253L211 934V888L253 860H297Z" glyph-name="aring" horiz-adv-x="550" unicode="&#xe5;"/><glyph d="M466 510 528 393Q528 335 530 302T528 253 498 233 419 229Q310 229 310 150L352 67H423L446 114Q449 161 487 161 523 161 519 82L460-10H318Q280 77 268 36L203-10H94L21 79V223L93 313H223Q250 255 250 297V431H146L98 391Q91 349 56 349 21 349 23 423L104 510H217L274 477Q291 447 328 510H466ZM383 299Q450 299 450 364L422 433H354L315 358Q315 299 383 299ZM212 66 255 114V191L213 236H135L99 190V113L137 66H212Z" glyph-name="ae" horiz-adv-x="550" unicode="&#xe6;"/><glyph d="M463 188Q499 188 488 96L371-10H307Q312-14 316-19T324-31L362-86V-181L301-240H197L130-178Q135-133 166-133 197-133 197-148L221-175H294V-88L267-54Q247-28 244-10H219L113 53 51 171V327L113 446 219 510H370L487 404Q499 313 463 313 426 313 408 372L339 433H242L172 389 131 306V192L172 110 242 67H340L409 128Q427 188 463 188Z" glyph-name="ccedilla" horiz-adv-x="550" unicode="&#xe7;"/><glyph d="M458 161Q496 161 483 85L378-10H221L112 56 51 174V324L110 443 217 510H395L504 365Q498 229 315 229 131 229 138 156L224 67H391Q419 161 458 161ZM224 433 151 363Q136 301 276 301 416 301 412 365L343 433H224ZM339 807Q330 795 297 809T210 860Q157 895 132 922T115 961Q124 973 157 958T245 908Q298 873 322 846T339 807Z" glyph-name="egrave" horiz-adv-x="550" unicode="&#xe8;"/><glyph d="M458 161Q496 161 483 85L378-10H221L112 56 51 174V324L110 443 217 510H395L504 365Q498 229 315 229 131 229 138 156L224 67H391Q419 161 458 161ZM224 433 151 363Q136 301 276 301 416 301 412 365L343 433H224ZM305 908Q360 943 393 958T435 961Q443 949 418 922T340 860Q286 824 253 810T211 807Q203 819 227 846T305 908Z" glyph-name="eacute" horiz-adv-x="550" unicode="&#xe9;"/><glyph d="M458 161Q496 161 483 85L378-10H221L112 56 51 174V324L110 443 217 510H395L504 365Q498 229 315 229 131 229 138 156L224 67H391Q419 161 458 161ZM224 433 151 363Q136 301 276 301 416 301 412 365L343 433H224ZM635 903Q682 861 697 836T705 805 671 809 613 850Q581 879 556 888T507 889 450 850Q417 820 392 809T359 804 365 836 427 903Q482 953 531 953T635 903Z" glyph-name="ecircumflex" horiz-adv-x="550" unicode="&#xea;"/><glyph d="M458 161Q496 161 483 85L378-10H221L112 56 51 174V324L110 443 217 510H395L504 365Q498 229 315 229 131 229 138 156L224 67H391Q419 161 458 161ZM224 433 151 363Q136 301 276 301 416 301 412 365L343 433H224ZM250 651Q250 602 198 602 146 602 146 651 146 700 198 700 250 700 250 651ZM427 651Q427 602 375 602 323 602 323 651 323 700 375 700 427 700 427 651Z" glyph-name="edieresis" horiz-adv-x="550" unicode="&#xeb;"/><glyph d="M395 75Q465 75 465 38 465 0 275 0 85 0 85 38 85 75 165 75 245 75 245 250 245 425 165 425 85 425 85 463 85 500 205 500 325 500 325 288 325 75 395 75ZM339 807Q330 795 297 809T210 860Q157 895 132 922T115 961Q124 973 157 958T245 908Q298 873 322 846T339 807Z" glyph-name="igrave" horiz-adv-x="550" unicode="&#xec;"/><glyph d="M395 75Q465 75 465 38 465 0 275 0 85 0 85 38 85 75 165 75 245 75 245 250 245 425 165 425 85 425 85 463 85 500 205 500 325 500 325 288 325 75 395 75ZM305 908Q360 943 393 958T435 961Q443 949 418 922T340 860Q286 824 253 810T211 807Q203 819 227 846T305 908Z" glyph-name="iacute" horiz-adv-x="550" unicode="&#xed;"/><glyph d="M395 75Q465 75 465 38 465 0 275 0 85 0 85 38 85 75 165 75 245 75 245 250 245 425 165 425 85 425 85 463 85 500 205 500 325 500 325 288 325 75 395 75ZM635 903Q682 861 697 836T705 805 671 809 613 850Q581 879 556 888T507 889 450 850Q417 820 392 809T359 804 365 836 427 903Q482 953 531 953T635 903Z" glyph-name="icircumflex" horiz-adv-x="550" unicode="&#xee;"/><glyph d="M395 75Q465 75 465 38 465 0 275 0 85 0 85 38 85 75 165 75 245 75 245 250 245 425 165 425 85 425 85 463 85 500 205 500 325 500 325 288 325 75 395 75ZM247 651Q247 602 195 602 143 602 143 651 143 700 195 700 247 700 247 651ZM424 651Q424 602 372 602 320 602 320 651 320 700 372 700 424 700 424 651Z" glyph-name="idieresis" horiz-adv-x="550" unicode="&#xef;"/><glyph d="M505 474V188L453 67 349-10H169L51 133V324L101 443 193 510H343Q387 448 320 569 119 642 134 676 147 710 221 684 284 644 319 677 337 694 352 694T376 686 384 663 368 634Q339 606 505 474ZM348 67 425 170V334L348 433H203L131 333V167L206 67H348Z" glyph-name="eth" horiz-adv-x="550" unicode="&#xf0;"/><glyph d="M362 510 436 477 487 397V166Q487 0 447 0 407 0 407 156V430H228L157 344Q143 290 143 146 143 0 103 0 63 0 63 250 63 500 103 500 143 500 143 426 143 351 161 409L251 510H362ZM456 932Q489 932 491 924V862L436 814H362L317 825Q303 835 291 844T268 860L237 886H195L168 845Q168 824 135 824 103 824 101 832V894L159 942H239L285 931Q314 912 336 895L365 870H423Q423 896 431 914T456 932Z" glyph-name="ntilde" horiz-adv-x="550" unicode="&#xf1;"/><glyph d="M210-10 108 53 51 170V328L108 446 210 510H341L442 446 499 328V170L443 53 342-10H210ZM341 67 419 163V335L341 433H211L131 335V163L210 67H341ZM339 807Q330 795 297 809T210 860Q157 895 132 922T115 961Q124 973 157 958T245 908Q298 873 322 846T339 807Z" glyph-name="ograve" horiz-adv-x="550" unicode="&#xf2;"/><glyph d="M210-10 108 53 51 170V328L108 446 210 510H341L442 446 499 328V170L443 53 342-10H210ZM341 67 419 163V335L341 433H211L131 335V163L210 67H341ZM305 908Q360 943 393 958T435 961Q443 949 418 922T340 860Q286 824 253 810T211 807Q203 819 227 846T305 908Z" glyph-name="oacute" horiz-adv-x="550" unicode="&#xf3;"/><glyph d="M210-10 108 53 51 170V328L108 446 210 510H341L442 446 499 328V170L443 53 342-10H210ZM341 67 419 163V335L341 433H211L131 335V163L210 67H341ZM635 903Q682 861 697 836T705 805 671 809 613 850Q581 879 556 888T507 889 450 850Q417 820 392 809T359 804 365 836 427 903Q482 953 531 953T635 903Z" glyph-name="ocircumflex" horiz-adv-x="550" unicode="&#xf4;"/><glyph d="M210-10 108 53 51 170V328L108 446 210 510H341L442 446 499 328V170L443 53 342-10H210ZM341 67 419 163V335L341 433H211L131 335V163L210 67H341ZM692 932Q725 932 727 924V862L672 814H598L553 825Q539 835 527 844T504 860L473 886H431L404 845Q404 824 371 824 339 824 337 832V894L395 942H475L521 931Q550 912 572 895L601 870H659Q659 896 667 914T692 932Z" glyph-name="otilde" horiz-adv-x="550" unicode="&#xf5;"/><glyph d="M210-10 108 53 51 170V328L108 446 210 510H341L442 446 499 328V170L443 53 342-10H210ZM341 67 419 163V335L341 433H211L131 335V163L210 67H341ZM245 651Q245 602 193 602 141 602 141 651 141 700 193 700 245 700 245 651ZM423 651Q423 602 371 602 319 602 319 651 319 700 371 700 423 700 423 651Z" glyph-name="odieresis" horiz-adv-x="550" unicode="&#xf6;"/><glyph d="M327 405Q327 356 275 356 223 356 223 405 223 454 275 454 327 454 327 405ZM275 307Q465 307 465 270 465 233 275 233 85 233 85 270 85 307 275 307ZM327 134Q327 85 275 85 223 85 223 134 223 182 275 182 327 182 327 134Z" glyph-name="divide" horiz-adv-x="550" unicode="&#xf7;"/><glyph d="M464 411 499 311V170L443 53 342-10H222Q175 13 164-6 157-18 142-15T116 1 113 28Q125 47 90 82L51 184V328L108 446 210 510H336Q383 484 395 505 403 519 419 516T446 500 446 470Q431 445 464 411ZM131 168Q143 152 163 163T208 202 255 267 294 340 316 401 312 433H211L131 335V168ZM341 67 419 163V324Q409 340 390 329T347 290 302 226 262 155 239 96 241 67H341Z" glyph-name="oslash" horiz-adv-x="550" unicode="&#xf8;"/><glyph d="M447 500Q487 500 487 250 487 0 447 0 407 0 407 76 407 153 389 88L304-10H188L114 23 63 103V334Q63 500 103 500 143 500 143 344V70H322L393 156Q407 210 407 354 407 500 447 500ZM339 807Q330 795 297 809T210 860Q157 895 132 922T115 961Q124 973 157 958T245 908Q298 873 322 846T339 807Z" glyph-name="ugrave" horiz-adv-x="550" unicode="&#xf9;"/><glyph d="M447 500Q487 500 487 250 487 0 447 0 407 0 407 76 407 153 389 88L304-10H188L114 23 63 103V334Q63 500 103 500 143 500 143 344V70H322L393 156Q407 210 407 354 407 500 447 500ZM305 908Q360 943 393 958T435 961Q443 949 418 922T340 860Q286 824 253 810T211 807Q203 819 227 846T305 908Z" glyph-name="uacute" horiz-adv-x="550" unicode="&#xfa;"/><glyph d="M447 500Q487 500 487 250 487 0 447 0 407 0 407 76 407 153 389 88L304-10H188L114 23 63 103V334Q63 500 103 500 143 500 143 344V70H322L393 156Q407 210 407 354 407 500 447 500ZM635 903Q682 861 697 836T705 805 671 809 613 850Q581 879 556 888T507 889 450 850Q417 820 392 809T359 804 365 836 427 903Q482 953 531 953T635 903Z" glyph-name="ucircumflex" horiz-adv-x="550" unicode="&#xfb;"/><glyph d="M447 500Q487 500 487 250 487 0 447 0 407 0 407 76 407 153 389 88L304-10H188L114 23 63 103V334Q63 500 103 500 143 500 143 344V70H322L393 156Q407 210 407 354 407 500 447 500ZM245 651Q245 602 193 602 141 602 141 651 141 700 193 700 245 700 245 651ZM423 651Q423 602 371 602 319 602 319 651 319 700 371 700 423 700 423 651Z" glyph-name="udieresis" horiz-adv-x="550" unicode="&#xfc;"/><glyph d="M470 500Q481 500 477 471T457 391 420 279 370 150 315 22 262-91 217-170 186-200Q144-200 189-96 234 6 136 254 39 500 81 500 123 500 199 302 275 105 351 302 428 500 470 500ZM305 908Q360 943 393 958T435 961Q443 949 418 922T340 860Q286 824 253 810T211 807Q203 819 227 846T305 908Z" glyph-name="yacute" horiz-adv-x="550" unicode="&#xfd;"/><glyph d="M363 510 450 444 499 326V176L449 57 357-10H174Q143 139 143-29 143-200 103-200 63-200 63 250 63 700 102 700 115 700 123 679T135 624 141 550 143 473 144 407 143 369Q143 353 147 363T159 410L239 510H363ZM355 68 419 166V333L350 433H218L143 330V167L218 68H355Z" glyph-name="thorn" horiz-adv-x="550" unicode="&#xfe;"/><glyph d="M470 500Q481 500 477 471T457 391 420 279 370 150 315 22 262-91 217-170 186-200Q144-200 189-96 234 6 136 254 39 500 81 500 123 500 199 302 275 105 351 302 428 500 470 500ZM235 651Q235 602 183 602 131 602 131 651 131 700 183 700 235 700 235 651ZM413 651Q413 602 361 602 309 602 309 651 309 700 361 700 413 700 413 651Z" glyph-name="ydieresis" horiz-adv-x="550" unicode="&#xff;"/><glyph d="M275 309Q475 309 475 271 475 232 275 232 75 232 75 271 75 309 275 309Z" glyph-name="endash" horiz-adv-x="550" unicode="&#x2013;"/><glyph d="M275 310Q510 310 510 272 510 233 275 233 40 233 40 272 40 310 275 310Z" glyph-name="emdash" horiz-adv-x="550" unicode="&#x2014;"/><glyph d="M315 653Q321 642 318 640L299 622 280 589Q280 568 304 562 329 558 329 508 329 460 275 460 221 460 221 493V585L267 649Q310 664 315 653Z" glyph-name="quoteleft" horiz-adv-x="550" unicode="&#x2018;"/><glyph d="M235 457Q229 468 232 470L251 488 270 521Q270 542 246 548 221 552 221 602 221 650 275 650 329 650 329 617V525L283 460Q240 447 235 457Z" glyph-name="quoteright" horiz-adv-x="550" unicode="&#x2019;"/><glyph d="M235-96Q229-85 232-83L251-65 270-32Q270-11 246-5 221-1 221 49 221 97 275 97 329 97 329 64V-28L283-92Q240-107 235-96Z" glyph-name="quotesinglbase" horiz-adv-x="550" unicode="&#x201a;"/><glyph d="M496 653Q502 642 499 640L480 622 461 589Q461 568 485 562 510 558 510 508 510 460 456 460 402 460 402 493V585L448 649Q491 664 496 653ZM390 653Q396 642 393 640L374 622 355 589Q355 568 379 562 404 558 404 508 404 460 350 460 296 460 296 493V585L342 649Q385 664 390 653Z" glyph-name="quotedblleft" horiz-adv-x="550" unicode="&#x201c;"/><glyph d="M416 457Q410 468 413 470L432 488 451 521Q451 542 427 548 402 552 402 602 402 650 456 650 510 650 510 617V525L464 460Q421 447 416 457ZM310 457Q304 468 307 470L326 488 345 521Q345 542 321 548 296 552 296 602 296 650 350 650 404 650 404 617V525L358 460Q315 447 310 457Z" glyph-name="quotedblright" horiz-adv-x="550" unicode="&#x201d;"/><glyph d="M160-96Q154-85 157-83L176-65 195-32Q195-11 171-5 146-1 146 49 146 97 200 97 254 97 254 64V-28L208-93Q165-106 160-96ZM310-96Q304-85 307-83L326-65 345-32Q345-11 321-5 296-1 296 49 296 97 350 97 404 97 404 64V-28L358-93Q315-106 310-96Z" glyph-name="quotedblbase" horiz-adv-x="550" unicode="&#x201e;"/><glyph d="M275 385Q398 385 398 262 398 139 275 139 152 139 152 262 152 385 275 385Z" glyph-name="bullet" horiz-adv-x="550" unicode="&#x2022;"/><glyph d="M309 361Q236 279 309 198 346 157 357 128T356 89 311 97 229 170Q196 206 190 244T195 320 229 388 277 440 325 470 356 470Q383 442 309 361Z" glyph-name="guilsinglleft" horiz-adv-x="550" unicode="&#x2039;"/><glyph d="M241 361Q167 442 194 470 203 479 225 471T272 441 320 388 355 320 361 245 321 170Q272 116 240 98T195 88 193 127 241 198Q314 279 241 361Z" glyph-name="guilsinglright" horiz-adv-x="550" unicode="&#x203a;"/></font>
</defs>
</svg>
